<svg xmlns="http://www.w3.org/2000/svg" width="20" height="20" fill="none" viewBox="0 0 20 20">
  <g clip-path="url(#a)">
    <path fill="#FFDF20" stroke="#FFDF20" stroke-linecap="round" stroke-linejoin="round" stroke-width="1.667" d="M9.604 1.912a.442.442 0 0 1 .792 0l1.925 3.9a1.77 1.77 0 0 0 1.33.966l4.304.63a.442.442 0 0 1 .245.754l-3.113 3.031a1.77 1.77 0 0 0-.51 1.565l.736 4.284a.442.442 0 0 1-.643.466l-3.848-2.023a1.768 1.768 0 0 0-1.644 0L5.33 17.508a.441.441 0 0 1-.642-.466l.735-4.283a1.768 1.768 0 0 0-.51-1.566L1.8 8.163a.442.442 0 0 1 .245-.756l4.304-.629a1.768 1.768 0 0 0 1.331-.966l1.924-3.9Z"/>
  </g>
  <defs>
    <clipPath id="a">
      <path fill="#fff" d="M0 0h20v20H0z"/>
    </clipPath>
  </defs>
</svg>
